# xmcd
#
# Track frame offsets:
#	150
#	24270
#	44759
#	77722
#	101257
#	149001
#	182376
#
# Disc length: 2847 seconds
#
# Revision: 1
# Processed by: cddbd v1.5.1PL0 Copyright (c) Steve Scherf et al.
# Submitted via: CDex 1.50Beta5
#
DISCID=530b1d07
DTITLE=Tsuki No Wa - Moon Beams
DYEAR=1900
DGENRE=Electronic
TTITLE0=カナシミ　イロ
TTITLE1=ひこうせん
TTITLE2=Plein Soleil
TTITLE3=On Mother's Day
TTITLE4=さすらいのカウボーイ
TTITLE5=小麦畑
TTITLE6=Moon Beams
EXTD=
EXTT0=
EXTT1=
EXTT2=
EXTT3=
EXTT4=
EXTT5=
EXTT6=
PLAYORDER=
